<svg width="57" height="74" viewBox="0 0 57 74" fill="none" xmlns="http://www.w3.org/2000/svg">
<path fill-rule="evenodd" clip-rule="evenodd" d="M54.6864 57.5556C46.3607 36.5601 36.6425 31.0266 36.6425 20.5556V8.22222H38.6782C39.2181 8.22222 39.7358 8.00565 40.1176 7.62016C40.4993 7.23467 40.7138 6.71183 40.7138 6.16667V2.05556C40.7138 1.51039 40.4993 0.98755 40.1176 0.602058C39.7358 0.216567 39.2181 0 38.6782 0H18.3218C17.7819 0 17.2642 0.216567 16.8824 0.602058C16.5007 0.98755 16.2862 1.51039 16.2862 2.05556V6.16667C16.2862 6.71183 16.5007 7.23467 16.8824 7.62016C17.2642 8.00565 17.7819 8.22222 18.3218 8.22222H20.3575V20.5556C20.3575 31.0266 10.6393 36.5601 2.3136 57.5556C-0.336795 64.2361 -7.14396 74 28.5 74C64.144 74 57.3368 64.2361 54.6864 57.5556Z" fill="#00D1CD"/>
<path fill-rule="evenodd" clip-rule="evenodd" d="M54.6864 57.5556C46.3607 36.5601 36.6425 31.0266 36.6425 20.5556V8.22222H38.6782C39.2181 8.22222 39.7358 8.00565 40.1176 7.62016C40.4993 7.23467 40.7138 6.71183 40.7138 6.16667V2.05556C40.7138 1.51039 40.4993 0.98755 40.1176 0.602058C39.7358 0.216567 39.2181 0 38.6782 0H18.3218C17.7819 0 17.2642 0.216567 16.8824 0.602058C16.5007 0.98755 16.2862 1.51039 16.2862 2.05556V6.16667C16.2862 6.71183 16.5007 7.23467 16.8824 7.62016C16.8824 7.62016 17.7819 8.22222 18.3218 8.22222H20.3575V20.5556C20.3575 31.0266 10.6393 36.5601 2.3136 57.5556C-0.336795 64.2361 -7.14396 74 28.5 74C64.144 74 57.3368 64.2361 54.6864 57.5556ZM48.1032 64.7541C45.2451 65.6174 39.5576 66.6 28.5 66.6C17.4424 66.6 11.7549 65.6174 8.89684 64.7541C7.8831 64.4499 7.48818 63.2618 7.84646 62.1723C8.74213 59.4179 11.9289 52.827 15.0882 47.5114C22.8074 34.5244 20.3353 50.0341 27 50.0341C33.6647 50.0341 40.9989 45.6599 43.5882 50.0341C45.971 54.0813 47.7186 57.6924 49.1535 62.1723C49.5118 63.2618 49.1169 64.4458 48.1032 64.7541Z" fill="white"/>
</svg>
