<svg width="87" height="30" viewBox="0 0 87 30" fill="none" xmlns="http://www.w3.org/2000/svg">
<path d="M67.708 22.8098L72.9435 15.7388H82.2215L84.8724 24.4775L69.2323 25.3447L67.708 22.8098Z" fill="#00D1CD"/>
<path fill-rule="evenodd" clip-rule="evenodd" d="M86.1601 21.4423C83.1379 13.8453 79.6102 11.843 79.6102 8.05415V3.59142H80.3491C80.5451 3.59142 80.7331 3.51306 80.8716 3.37357C81.0102 3.23409 81.0881 3.0449 81.0881 2.84764V1.36006C81.0881 1.16279 81.0102 0.97361 80.8716 0.834122C80.7331 0.694635 80.5451 0.616272 80.3491 0.616272H72.9598C72.7639 0.616272 72.5759 0.694635 72.4373 0.834122C72.2988 0.97361 72.2209 1.16279 72.2209 1.36006V2.84764C72.2209 3.0449 72.2988 3.23409 72.4373 3.37357C72.5759 3.51306 72.7639 3.59142 72.9598 3.59142H73.6988V8.05415C73.6988 11.843 70.1711 13.8453 67.1489 21.4423C66.1868 23.8596 63.7158 27.3926 76.6545 27.3926C89.5931 27.3926 87.1222 23.8596 86.1601 21.4423ZM83.7704 24.0471C82.7329 24.3595 80.6684 24.715 76.6545 24.715C72.6406 24.715 70.5761 24.3595 69.5386 24.0471C69.1706 23.937 69.0273 23.5071 69.1573 23.1129C69.4824 22.1162 70.0958 20.3936 71.2426 18.4702C74.0446 13.7709 76.9515 19.2095 79.3708 19.2095C81.7901 19.2095 81.1265 16.8874 82.0664 18.4702C82.9314 19.9346 83.6308 21.4919 84.1517 23.1129C84.2817 23.5071 84.1384 23.9355 83.7704 24.0471Z" fill="white"/>
<path d="M11.2915 2.00573C9.82561 1.70859 8.60731 1.56001 7.63664 1.56001C6.61644 1.56001 5.829 1.86706 5.27433 2.48116C4.71966 3.08536 4.44232 3.94708 4.44232 5.06633V7.0572H8.2755V8.51321H4.44232V23.1328H2.65945V8.51321H0V7.0572H2.65945V5.0069C2.66936 3.3825 3.10022 2.1444 3.95203 1.29258C4.80385 0.430861 5.99243 0 7.51778 0C8.74598 0 10.5932 0.302098 13.0595 0.906293V23.1328H11.2915V2.00573Z" fill="white"/>
<path d="M28.1099 23.1328C27.9317 22.6276 27.8178 21.8798 27.7682 20.8893C27.1442 21.7015 26.3469 22.3305 25.3762 22.7762C24.4154 23.212 23.3952 23.4299 22.3156 23.4299C20.7705 23.4299 19.5175 22.999 18.5567 22.1373C17.6059 21.2756 17.1304 20.1861 17.1304 18.8687C17.1304 17.3038 17.7792 16.0657 19.0767 15.1544C20.3842 14.2432 22.2017 13.7875 24.5293 13.7875H27.7534V11.9601C27.7534 10.8111 27.3968 9.9098 26.6837 9.25608C25.9804 8.59245 24.9503 8.26064 23.5933 8.26064C22.3552 8.26064 21.3301 8.5776 20.5179 9.21151C19.7057 9.84542 19.2996 10.6081 19.2996 11.4995L17.5167 11.4847C17.5167 10.2069 18.111 9.10255 19.2996 8.1715C20.4882 7.23054 21.9491 6.76006 23.6825 6.76006C25.4753 6.76006 26.8867 7.21073 27.9168 8.11207C28.9568 9.0035 29.4917 10.2515 29.5214 11.8561V19.463C29.5214 21.0181 29.6848 22.1819 30.0117 22.9545V23.1328H28.1099ZM22.5236 21.855C23.7122 21.855 24.772 21.5678 25.7031 20.9933C26.644 20.4188 27.3275 19.6512 27.7534 18.6904V15.1544H24.5739C22.801 15.1742 21.4143 15.5011 20.4139 16.135C19.4135 16.759 18.9133 17.6207 18.9133 18.7202C18.9133 19.6215 19.2451 20.3693 19.9087 20.9636C20.5823 21.5579 21.4539 21.855 22.5236 21.855Z" fill="white"/>
<path d="M43.9032 19.047C43.9032 18.1655 43.5466 17.4573 42.8335 16.9224C42.1303 16.3876 41.0655 15.9716 39.6392 15.6744C38.2129 15.3674 37.1035 15.0207 36.3112 14.6344C35.5287 14.2382 34.9443 13.7578 34.558 13.1933C34.1816 12.6287 33.9934 11.9452 33.9934 11.143C33.9934 9.87513 34.5233 8.83017 35.5832 8.00807C36.643 7.17606 37.9999 6.76006 39.654 6.76006C41.4468 6.76006 42.883 7.20577 43.9627 8.09721C45.0522 8.97874 45.597 10.1327 45.597 11.559H43.8141C43.8141 10.618 43.4179 9.83551 42.6255 9.21151C41.843 8.5875 40.8525 8.2755 39.654 8.2755C38.4853 8.2755 37.5443 8.53798 36.8312 9.06293C36.1279 9.57798 35.7763 10.2515 35.7763 11.0835C35.7763 11.8858 36.0685 12.5098 36.6529 12.9555C37.2472 13.3913 38.3218 13.7925 39.8769 14.159C41.4419 14.5255 42.6106 14.9167 43.3832 15.3327C44.1657 15.7487 44.7451 16.2489 45.1215 16.8333C45.4979 17.4177 45.6861 18.1259 45.6861 18.9579C45.6861 20.3148 45.1364 21.3994 44.0369 22.2116C42.9474 23.0238 41.5211 23.4299 39.758 23.4299C37.886 23.4299 36.3656 22.9792 35.1969 22.0779C34.038 21.1667 33.4586 20.0177 33.4586 18.631H35.2414C35.3108 19.671 35.7466 20.4832 36.5489 21.0676C37.3611 21.6421 38.4308 21.9293 39.758 21.9293C40.9962 21.9293 41.9965 21.6569 42.7592 21.1122C43.5219 20.5674 43.9032 19.879 43.9032 19.047Z" fill="white"/>
<path d="M48.9844 14.9464C48.9844 12.4306 49.5391 10.4397 50.6484 8.97379C51.7677 7.49797 53.293 6.76006 55.2245 6.76006C57.3936 6.76006 59.0428 7.58711 60.1719 9.24122L60.2611 7.0572H61.9251V29.3134H60.1422V21.1419C58.9734 22.6672 57.3243 23.4299 55.1947 23.4299C53.3128 23.4299 51.8073 22.687 50.6781 21.2013C49.549 19.7156 48.9844 17.7099 48.9844 15.1841V14.9464ZM50.7821 15.2584C50.7821 17.3384 51.1981 18.9727 52.0301 20.1613C52.8721 21.34 54.0359 21.9293 55.5216 21.9293C57.6511 21.9293 59.1914 21.0032 60.1422 19.151V11.2767C59.6965 10.3159 59.0774 9.57798 58.2851 9.06293C57.5026 8.53798 56.5913 8.2755 55.5513 8.2755C54.0557 8.2755 52.8869 8.86979 52.045 10.0584C51.2031 11.237 50.7821 12.9704 50.7821 15.2584Z" fill="white"/>
</svg>
