<svg width="64" height="64" viewBox="0 0 64 64" fill="none" xmlns="http://www.w3.org/2000/svg">
<g clip-path="url(#clip0_1928_5345)">
<rect x="5.53027" y="4.78638" width="52.9399" height="52.9399" rx="4.01011" fill="white"/>
<rect x="51.6973" y="24.5869" width="6.66918" height="23.6782" fill="#858585"/>
<ellipse cx="55.0316" cy="13.575" rx="13.054" ry="13.0799" fill="#41C4AB"/>
<circle opacity="0.6" cx="42.0555" cy="9.82696" r="10.0555" fill="#41C4AB"/>
<rect x="-24.3008" y="41.8027" width="57.2309" height="23.0061" fill="#7A7A7A"/>
<rect x="-24.3008" y="39.9417" width="57.2309" height="23.0061" fill="#7A7A7A"/>
<rect x="25.2275" y="51.4705" width="4.80802" height="4.75632" fill="#585858"/>
<rect x="15.4561" y="43.4055" width="4.85971" height="4.85971" fill="#585858"/>
<rect x="7.33984" y="51.3672" width="4.85971" height="4.85971" fill="#585858"/>
<rect x="31.793" y="39.9417" width="48.5971" height="23.0061" fill="#41C4AB"/>
</g>
<path d="M31.14 35.299L37.1296 21.5266L34.4343 16.1395H28.0455V12.4832H36.7802L38.602 16.1395H56.1214L53.6258 24.6711H42.8696L44.5417 28.0106C46.4367 27.2562 48.4927 26.9683 50.5285 27.1725C52.5642 27.3767 54.5174 28.0666 56.216 29.1814C57.9146 30.2963 59.3065 31.802 60.2692 33.5659C61.2319 35.3298 61.7358 37.2978 61.7366 39.2967C61.7366 46.0245 56.1464 51.4847 49.2584 51.4847C42.3704 51.4847 36.7802 46.0245 36.7802 39.2967C36.7802 35.5184 38.5521 32.1302 41.3223 29.912L39.2758 25.8899L32.4128 41.7343H26.5481C26.0759 43.9937 24.9571 46.076 23.3217 47.7392C21.6863 49.4024 19.6014 50.5783 17.3091 51.1303C15.0167 51.6823 12.6111 51.5878 10.3716 50.8578C8.1321 50.1277 6.15058 48.7921 4.65719 47.006C3.16381 45.2199 2.21985 43.0566 1.93494 40.7675C1.65004 38.4783 2.03589 36.1571 3.04767 34.0736C4.05945 31.99 5.65565 30.2296 7.65087 28.9967C9.6461 27.7639 11.9585 27.1092 14.3194 27.1087C20.7831 27.1087 26.0989 31.9108 26.7976 38.0779H28.2451L22.555 24.6711H20.5585C19.5353 24.6711 18.6868 23.8423 18.6868 22.8429C18.6868 21.8435 19.5353 21.0147 20.5585 21.0147H27.4215C28.4448 21.0147 29.2933 21.8435 29.2933 22.8429C29.2933 23.8423 28.4448 24.6711 27.4215 24.6711H26.7228L31.14 35.299ZM14.3194 30.7651C9.50283 30.7651 5.58467 34.5921 5.58467 39.2967C5.58921 41.3453 6.34747 43.3241 7.72116 44.8723C9.09486 46.4204 10.9925 47.4347 13.068 47.7302C15.1435 48.0257 17.2586 47.5828 19.0276 46.4821C20.7966 45.3814 22.1017 43.6964 22.7048 41.7343H11.8238V38.0779H22.9793C22.3554 33.934 18.7118 30.7651 14.3194 30.7651ZM49.2584 30.7651C48.1853 30.7651 47.1371 30.9601 46.1888 31.3014L52.2994 41.7343H47.9403L43.0193 33.3246C41.472 34.8603 40.5237 36.981 40.5237 39.2967C40.5237 44.0013 44.4418 47.8283 49.2584 47.8283C54.075 47.8283 57.9932 44.0013 57.9932 39.2967C57.9932 34.5921 54.075 30.7651 49.2584 30.7651Z" fill="#292929"/>
<defs>
<clipPath id="clip0_1928_5345">
<rect x="5.53027" y="4.78638" width="52.9399" height="52.9399" rx="4.01011" fill="white"/>
</clipPath>
</defs>
</svg>
